# xmcd CD database file
#
# Track frame offsets:
#	187
#	23359
#	44867
#	63007
#	89772
#	108989
#	135147
#	151582
#	177042
#	202002
#	218594
#	244809
#
# Disc length: 3472 seconds
#
# Revision: 10
# Processed by: cddbd v1.5.2PL0 Copyright (c) Steve Scherf et al.
# Submitted via: CDex 1.51
#
DISCID=940d8e0c
DTITLE=The Black Crowes - Amorica.
DYEAR=1994
DGENRE=Rock
TTITLE0=Gone
TTITLE1=A Conspiracy
TTITLE2=High Head Blues
TTITLE3=Cursed Diamond
TTITLE4=Nonfiction
TTITLE5=She Gave Good Sunflower
TTITLE6=P. 25 London
TTITLE7=Ballad In Urgency
TTITLE8=Wiser Time
TTITLE9=Downtown Money Waster
TTITLE10=Descending
TTITLE11=Chevrolet
EXTD=YEAR: 1994
EXTT0=
EXTT1=
EXTT2=
EXTT3=
EXTT4=
EXTT5=
EXTT6=
EXTT7=
EXTT8=
EXTT9=
EXTT10=
EXTT11=
PLAYORDER=
